<?xml version="1.0" standalone="no"?>
<!DOCTYPE svg PUBLIC "-//W3C//DTD SVG 20010904//EN" "http://www.w3.org/TR/2001/REC-SVG-20010904/DTD/svg10.dtd">
<svg version="1.0" xmlns="http://www.w3.org/2000/svg"
  width="1080.000000pt" height="1080.000000pt" viewBox="0 0 1080.000000 1080.000000"
  preserveAspectRatio="xMidYMid meet">

  <g transform="translate(0.000000,1080.000000) scale(0.100000,-0.100000)"
    fill="#000000" stroke="none">
    <path
      d="M2824 7950 c-129 -5 -145 -8 -200 -35 -35 -18 -68 -43 -81 -63 -40
-60 -44 -118 -41 -524 3 -375 3 -384 26 -433 12 -27 30 -58 40 -68 49 -54 168
-81 234 -54 42 17 54 46 44 100 -11 56 -16 59 -75 46 -48 -10 -56 -9 -80 8
l-26 20 -3 402 -2 402 24 24 25 25 326 0 c211 0 333 -4 346 -11 26 -14 43 -57
29 -74 -8 -10 -59 -14 -188 -17 -149 -3 -182 -6 -212 -22 -49 -26 -79 -55
-103 -101 -21 -39 -22 -50 -22 -420 0 -416 1 -427 59 -493 61 -69 174 -94 262
-57 21 9 95 49 164 90 69 41 183 105 255 142 98 51 133 75 143 96 16 32 10 83
-13 113 -13 18 -19 16 -157 -53 -79 -40 -213 -113 -298 -162 -172 -101 -204
-109 -239 -65 -20 26 -21 38 -21 370 0 230 4 351 11 367 20 44 41 47 380 47
l320 0 25 -25 c14 -14 24 -31 22 -37 -2 -6 -76 -43 -164 -83 -293 -132 -524
-257 -545 -297 -11 -21 -8 -132 4 -144 3 -4 75 32 159 78 191 107 336 180 447
224 80 33 86 34 98 18 10 -14 13 -101 13 -370 0 -397 -3 -384 74 -384 81 0 78
-13 77 412 -2 455 -8 429 119 471 227 75 586 151 850 179 155 17 719 17 880 0
300 -31 596 -89 844 -167 116 -36 155 -60 158 -98 0 -12 2 -189 2 -394 1 -419
-2 -405 76 -407 71 -1 70 -9 70 393 0 196 4 362 9 370 7 11 22 9 82 -14 95
-36 273 -124 467 -232 84 -47 155 -83 158 -80 12 12 16 125 5 145 -21 39 -232
155 -536 293 -93 42 -171 82 -173 88 -2 6 8 22 22 36 l25 25 329 0 c310 0 331
-1 353 -19 l24 -19 3 -361 3 -361 -25 -25 c-42 -42 -72 -34 -229 60 -78 47
-205 118 -283 157 -163 82 -179 83 -190 12 -9 -65 5 -88 78 -125 35 -17 158
-84 273 -149 116 -66 231 -124 257 -130 93 -23 203 33 250 127 23 47 23 54 26
406 3 392 -1 433 -54 497 -54 64 -90 74 -289 80 l-180 5 -3 27 c-2 17 4 34 18
48 20 20 27 21 355 18 333 -3 335 -3 357 -26 l23 -23 0 -393 c0 -470 7 -442
-112 -432 -65 5 -73 4 -73 -12 0 -9 -3 -34 -6 -54 -6 -32 -2 -41 24 -68 26
-26 38 -30 84 -30 91 1 169 47 211 125 22 39 22 49 22 460 0 451 -1 465 -52
526 -46 54 -92 70 -242 81 -178 13 -561 3 -627 -17 -63 -18 -106 -63 -134
-137 -29 -79 -56 -98 -139 -98 -117 0 -170 -27 -232 -116 -16 -24 -37 -44 -46
-44 -8 0 -71 18 -140 40 -220 70 -607 144 -893 171 -182 17 -583 14 -785 -6
-314 -30 -677 -102 -905 -179 -41 -14 -83 -26 -92 -26 -10 0 -29 17 -42 39
-32 50 -88 95 -135 110 -21 6 -69 11 -107 11 -87 0 -105 12 -133 88 -45 125
-87 149 -274 162 -143 10 -244 10 -463 0z" />
    <path
      d="M4980 7385 c-272 -28 -521 -76 -748 -144 -214 -65 -240 -83 -227
-158 11 -68 12 -68 117 -35 871 279 1642 280 2527 1 51 -16 96 -27 99 -24 4 3
8 34 10 68 3 46 0 66 -10 75 -17 14 -309 103 -453 137 -55 14 -194 39 -310 56
-197 30 -230 32 -540 35 -229 2 -371 -1 -465 -11z" />
    <path
      d="M3725 6310 c-305 -65 -535 -246 -667 -526 -66 -141 -81 -215 -82
-399 -1 -145 2 -170 27 -264 90 -337 262 -531 552 -620 262 -81 775 -61 903
36 46 34 61 62 83 145 10 40 32 108 48 150 48 123 20 141 -89 57 -231 -177
-568 -209 -770 -72 -192 130 -282 358 -267 677 14 303 135 483 369 550 131 37
291 11 457 -74 143 -74 141 -75 141 106 0 80 -5 154 -10 164 -12 23 -105 52
-234 75 -125 21 -346 19 -461 -5z" />
    <path
      d="M5465 6320 c-300 -32 -586 -234 -725 -515 -63 -127 -89 -228 -96
-380 -15 -298 109 -625 288 -763 288 -220 666 -274 1117 -158 51 14 98 29 103
34 17 17 128 347 126 372 -4 37 -33 36 -77 -2 -233 -198 -597 -235 -818 -82
-30 20 -70 56 -89 78 -48 56 -120 204 -145 301 -29 109 -32 316 -6 430 62 270
244 426 496 425 97 0 189 -26 306 -85 61 -30 115 -55 122 -55 25 0 33 42 33
168 0 114 -2 132 -20 155 -48 61 -374 102 -615 77z" />
    <path
      d="M6695 6300 c-60 -4 -156 -8 -212 -9 -105 -1 -133 -6 -133 -23 0 -6
15 -40 33 -77 l32 -66 3 -700 c3 -744 2 -777 -44 -867 -46 -90 -63 -84 263
-91 542 -13 651 -7 796 46 262 95 393 306 357 575 -13 104 -43 174 -101 237
-49 53 -144 109 -228 135 -99 30 -100 32 -43 74 177 130 228 336 132 532 -55
113 -172 192 -327 220 -96 17 -380 25 -528 14z m322 -241 c101 -26 161 -131
151 -269 -6 -77 -28 -130 -76 -176 -61 -59 -199 -87 -222 -45 -12 23 -14 450
-1 469 17 28 82 37 148 21z m67 -731 c120 -23 181 -91 211 -236 32 -154 -31
-305 -151 -361 -36 -17 -67 -22 -144 -24 -145 -3 -134 -27 -138 321 -3 282 -3
287 18 304 24 19 89 18 204 -4z" />
    <path
      d="M3850 4254 c-39 -15 -40 -28 -40 -380 0 -194 -4 -354 -10 -368 l-9
-25 -59 20 c-77 26 -300 136 -482 238 -79 44 -147 81 -151 81 -11 0 -19 -41
-19 -93 0 -41 5 -53 29 -75 39 -37 309 -180 463 -246 156 -68 228 -104 228
-115 0 -5 -9 -19 -19 -32 l-19 -24 -331 -3 -332 -3 -29 30 -30 29 0 340 c0
363 4 398 46 408 43 11 75 -2 221 -89 171 -101 376 -206 419 -213 35 -7 44 9
44 82 0 52 -17 68 -145 131 -55 27 -170 90 -256 141 -164 97 -220 117 -294
103 -55 -11 -97 -34 -133 -75 -57 -65 -62 -103 -62 -475 0 -193 5 -355 11
-381 31 -139 142 -189 414 -190 110 0 123 -6 101 -47 -8 -17 -26 -33 -38 -37
-13 -3 -162 -6 -331 -6 -323 0 -355 4 -371 45 -3 9 -6 192 -6 406 l0 390 25
24 c27 28 42 30 99 14 48 -13 55 -6 63 58 5 46 3 54 -20 77 -23 23 -34 26 -92
26 -77 0 -126 -21 -173 -74 -60 -69 -63 -100 -60 -543 3 -363 5 -402 22 -441
23 -54 85 -107 141 -121 56 -14 696 -15 744 -1 65 18 109 59 143 129 43 92 53
101 107 101 68 0 156 24 200 53 22 15 52 48 67 74 15 27 28 49 29 50 1 2 40
-9 86 -23 416 -126 774 -189 1144 -202 538 -19 947 28 1415 165 218 64 199 64
245 1 55 -74 121 -106 240 -116 100 -8 86 4 140 -115 32 -69 75 -102 154 -117
84 -16 433 -23 583 -12 153 12 207 29 251 81 55 66 58 100 55 543 -3 391 -4
404 -25 443 -42 78 -104 118 -199 130 -89 11 -135 -38 -118 -124 l9 -46 71 3
c76 4 98 -7 109 -51 3 -12 5 -192 3 -399 l-3 -377 -23 -23 -23 -23 -340 0
-341 0 -19 24 c-41 50 -28 55 141 62 85 3 169 10 185 14 86 23 168 95 182 162
4 21 8 200 8 398 0 393 -2 408 -58 471 -57 66 -148 95 -227 74 -24 -7 -116
-54 -205 -105 -88 -51 -203 -114 -255 -140 -120 -60 -140 -77 -140 -126 0 -53
16 -89 39 -89 32 0 319 151 507 266 81 50 129 57 160 23 18 -20 19 -43 22
-367 3 -368 1 -390 -44 -411 -17 -7 -128 -11 -345 -11 l-320 0 -25 25 c-14 14
-24 31 -21 38 2 6 98 54 213 107 251 114 444 220 479 261 27 33 32 75 14 128
-6 17 -13 31 -15 31 -2 0 -70 -38 -151 -84 -185 -104 -311 -168 -433 -217 -87
-35 -96 -37 -107 -22 -10 13 -13 104 -13 374 0 273 -3 359 -12 367 -7 6 -30
13 -50 17 -31 6 -41 3 -62 -19 l-26 -25 0 -385 0 -385 -22 -25 c-26 -28 -109
-56 -326 -110 -718 -180 -1441 -179 -2165 3 -255 65 -305 84 -322 125 -10 24
-13 119 -14 410 0 309 -2 382 -14 393 -15 15 -74 25 -97 17z" />
    <path
      d="M4016 3761 c-2 -3 -7 -29 -10 -56 -10 -70 12 -96 101 -123 180 -56
236 -72 333 -96 447 -109 1010 -135 1500 -70 272 36 652 129 770 188 l45 23 0
61 c0 33 -3 64 -8 68 -4 4 -61 -10 -127 -30 -420 -131 -823 -197 -1210 -198
-434 -1 -854 66 -1286 206 -57 19 -106 31 -108 27z" />
  </g>
</svg>