<?xml version="1.0" standalone="no"?>
<!DOCTYPE svg PUBLIC "-//W3C//DTD SVG 20010904//EN" "http://www.w3.org/TR/2001/REC-SVG-20010904/DTD/svg10.dtd">
<svg version="1.0" xmlns="http://www.w3.org/2000/svg"
  width="1114.000000pt" height="576.000000pt" viewBox="0 0 1114.000000 576.000000"
  preserveAspectRatio="xMidYMid meet">

  <g transform="translate(0.000000,576.000000) scale(0.100000,-0.100000)"
    fill="#000000" stroke="none">
    <path
      d="M107 5623 c-4 -3 -7 -388 -7 -854 l0 -847 42 -68 c168 -277 268 -647
268 -992 0 -108 -18 -309 -34 -377 -45 -190 -64 -256 -106 -360 -38 -96 -151
-315 -162 -315 -11 0 -10 -1707 1 -1714 5 -3 800 -6 1767 -6 l1759 0 5 197 c4
168 7 198 20 196 8 -1 83 -17 165 -36 196 -46 321 -71 480 -97 72 -11 144 -23
160 -26 34 -6 147 -20 275 -34 454 -52 1172 -54 1613 -5 240 27 325 39 535 75
126 22 373 73 464 96 152 38 137 56 140 -168 l3 -193 1758 -5 c968 -3 1761 -2
1763 2 2 3 4 392 4 863 l0 856 -40 68 c-108 182 -194 429 -237 686 -19 114
-22 450 -4 555 46 275 92 420 203 640 l78 155 0 840 c0 462 0 848 0 858 0 16
-266 17 -5453 17 -3000 0 -5457 -3 -5460 -7z m3473 -72 c16 -30 14 -546 -2
-559 -13 -10 -117 -42 -137 -42 -8 0 -11 70 -11 230 l0 230 -1555 0 -1555 0 0
-716 0 -715 43 -82 c245 -465 317 -989 208 -1509 -37 -179 -119 -402 -206
-565 l-45 -84 0 -714 0 -715 1555 0 1555 0 2 228 c3 195 5 227 18 225 8 -1 47
-10 85 -21 79 -23 287 -77 325 -85 14 -3 68 -15 120 -26 89 -20 120 -26 255
-51 144 -26 285 -48 420 -65 594 -75 1371 -69 1940 16 378 56 776 140 1047
222 26 8 49 12 52 9 4 -3 6 -106 6 -229 l0 -223 1555 0 1555 0 0 720 0 719
-28 48 c-112 193 -206 473 -249 743 -20 130 -23 498 -4 610 49 295 101 462
212 685 l69 141 0 717 0 717 -1552 -2 -1553 -3 -3 -227 c-2 -173 -5 -228 -15
-228 -6 0 -39 9 -72 19 l-60 19 0 288 0 289 1694 3 c932 1 1699 -2 1703 -6 5
-5 8 -376 8 -826 l0 -817 -27 -42 c-88 -140 -189 -409 -232 -622 -37 -182 -47
-494 -22 -670 35 -245 106 -461 222 -683 l59 -113 0 -807 c0 -444 0 -813 0
-820 0 -10 -344 -12 -1703 -10 l-1702 3 -3 203 c-1 111 -6 202 -11 202 -4 0
-70 -16 -145 -35 -395 -99 -816 -166 -1306 -206 -185 -16 -873 -16 -1050 0
-521 45 -913 107 -1308 207 -75 19 -137 32 -140 29 -2 -2 -4 -89 -3 -192 1
-103 -2 -194 -7 -201 -7 -10 -355 -12 -1708 -10 l-1699 3 -3 817 -2 818 30 48
c25 41 87 169 120 247 126 303 177 684 136 1015 -32 251 -92 449 -208 681
l-78 157 0 810 c0 639 3 811 13 815 6 3 771 6 1699 6 1658 1 1687 1 1698 -18z
m1254 13 c23 -9 22 -99 0 -108 -9 -4 -242 -6 -518 -6 -275 0 -507 0 -513 0
-10 0 -13 -56 -13 -245 0 -135 4 -245 8 -245 5 0 74 14 153 31 148 31 177 37
339 64 152 25 209 34 300 44 47 6 120 15 163 21 43 6 83 8 88 4 5 -3 9 -27 9
-54 0 -58 19 -51 -200 -75 -136 -15 -321 -42 -500 -74 -89 -15 -207 -41 -337
-72 -68 -16 -125 -29 -128 -29 -8 0 -6 736 2 743 8 9 1126 9 1147 1z m1314
-48 c2 -32 -1 -52 -10 -57 -7 -5 -245 -9 -528 -9 l-515 1 -3 -148 -2 -148 482
-1 c266 -1 503 -5 528 -10 l45 -10 0 -49 0 -50 -135 5 c-211 8 -741 6 -892 -3
l-138 -9 0 265 c0 203 3 267 13 270 6 3 269 5 582 4 l570 -2 3 -49z m1190 31
c76 -42 95 -146 37 -207 l-28 -29 41 -45 c125 -136 51 -331 -144 -376 -46 -10
-69 -8 -210 19 -188 37 -443 75 -604 91 -63 6 -125 14 -137 16 l-23 4 0 263
c0 195 3 266 12 275 10 10 127 12 518 10 464 -3 508 -4 538 -21z m-4180 -474
c1 -176 6 -273 12 -273 6 0 52 14 102 30 50 17 92 30 94 30 2 0 4 -47 4 -104
0 -58 4 -107 8 -110 4 -2 59 11 122 30 105 31 421 115 480 127 14 2 81 16 150
30 722 150 1471 184 2235 102 77 -8 167 -19 200 -25 33 -5 119 -19 190 -30 72
-12 164 -28 205 -37 41 -8 95 -19 120 -24 124 -25 456 -113 663 -175 15 -5 17
4 17 100 0 58 4 107 8 110 5 3 48 -9 96 -25 48 -17 92 -29 97 -27 7 2 10 89
10 259 -1 140 1 263 5 272 6 16 98 17 1390 17 l1384 0 0 -680 0 -681 -38 -72
c-115 -219 -198 -471 -239 -724 -21 -134 -24 -528 -5 -643 50 -295 126 -530
243 -749 l39 -73 0 -679 0 -679 -1387 2 -1388 3 -2 268 c-1 148 -3 271 -6 273
-2 2 -46 -9 -96 -26 -51 -16 -97 -28 -102 -24 -5 3 -9 53 -9 111 0 96 -1 105
-17 98 -73 -29 -442 -129 -608 -164 -55 -12 -118 -26 -140 -31 -192 -44 -514
-89 -860 -122 -188 -17 -940 -18 -1130 0 -145 13 -384 39 -432 47 -16 2 -59 9
-98 15 -339 52 -723 142 -1047 243 -26 8 -49 12 -52 9 -4 -3 -6 -52 -6 -109 0
-56 -4 -103 -9 -103 -5 0 -51 13 -101 30 -50 16 -94 30 -96 30 -2 0 -4 -124
-4 -275 l0 -275 -1390 0 -1390 0 0 676 0 675 43 82 c173 330 257 673 257 1052
0 376 -76 700 -241 1026 l-59 116 0 670 c0 368 3 673 7 676 3 4 628 6 1387 5
l1381 -3 3 -272z m212 64 l0 -213 -62 -19 c-35 -11 -69 -21 -75 -23 -10 -3
-13 49 -13 232 l0 236 75 0 75 0 0 -213z m4538 -25 l2 -233 -22 7 c-13 4 -45
15 -73 24 l-50 17 -3 199 c-1 109 0 204 3 212 3 9 23 12 72 10 l68 -3 3 -233z
m-4323 -271 l0 -74 -70 -23 c-38 -12 -73 -20 -77 -18 -4 3 -8 39 -8 79 l0 74
63 20 c91 29 92 28 92 -58z m4026 68 c95 -30 89 -23 89 -106 l0 -76 -41 7
c-23 4 -56 13 -75 21 l-34 14 0 75 c0 83 1 84 61 65z m-4023 -3958 c651 -186
1271 -271 1977 -271 709 0 1320 84 1977 271 75 21 141 39 147 39 7 0 11 -28
11 -75 l0 -75 -33 -14 c-52 -21 -455 -121 -627 -155 -268 -53 -412 -77 -620
-100 -47 -6 -107 -13 -135 -16 -125 -14 -548 -35 -717 -35 -405 0 -863 40
-1268 110 -243 43 -640 134 -795 184 l-70 23 -3 76 c-2 52 1 77 8 77 7 0 73
-18 148 -39z m-280 -142 l62 -21 0 -209 0 -209 -75 0 -75 0 0 230 c0 183 3
230 13 230 7 0 41 -9 75 -21z m4602 -209 l0 -230 -75 0 -75 0 0 209 0 210 58
19 c101 34 92 54 92 -208z" />
    <path
      d="M6384 5446 c-3 -7 -4 -33 -2 -57 l3 -44 425 0 424 0 15 27 c12 20 13
34 5 55 l-9 28 -428 3 c-358 2 -428 0 -433 -12z" />
    <path
      d="M6380 5181 l0 -68 93 -12 c231 -30 475 -68 612 -97 135 -27 205 -12
240 55 37 72 -3 158 -83 181 -22 6 -200 10 -449 10 l-413 0 0 -69z" />
    <path
      d="M6331 4069 c-21 -23 -22 -23 -69 -6 -61 22 -95 22 -115 -1 -23 -25
-23 -72 0 -72 9 0 25 7 34 16 17 15 22 15 68 0 70 -23 98 -21 117 8 17 27 16
67 -3 73 -6 2 -21 -6 -32 -18z" />
    <path
      d="M9996 4069 c-10 -12 -24 -19 -34 -15 -68 22 -102 28 -123 23 -25 -6
-49 -42 -49 -72 0 -20 47 -19 58 1 7 12 17 14 45 9 21 -4 40 -11 43 -16 9 -15
72 -10 88 7 9 8 19 26 22 39 11 46 -19 60 -50 24z" />
    <path
      d="M1117 3936 c-72 -27 -114 -62 -144 -123 -25 -52 -28 -68 -28 -158 0
-87 4 -106 26 -150 64 -126 228 -173 347 -98 42 27 92 95 92 128 0 17 -22 30
-67 40 -30 6 -33 4 -46 -28 -43 -102 -171 -104 -224 -4 -24 46 -24 190 0 235
35 65 118 91 178 55 16 -10 29 -20 29 -23 0 -3 8 -15 18 -28 17 -22 20 -22 65
-10 49 13 55 24 35 61 -53 93 -181 141 -281 103z" />
    <path
      d="M1660 3930 c-115 -39 -177 -149 -168 -296 13 -200 165 -305 359 -248
106 31 169 133 169 274 0 99 -23 161 -80 214 -78 73 -175 92 -280 56z m195
-120 c40 -39 59 -101 53 -172 -9 -112 -61 -168 -155 -168 -47 0 -56 4 -91 38
-93 88 -74 280 32 328 52 24 121 12 161 -26z" />
    <path
      d="M2822 3932 c-72 -26 -120 -68 -148 -132 -63 -144 -18 -323 98 -389
89 -51 220 -51 317 -1 67 34 72 45 69 161 l-3 104 -117 3 -118 3 0 -45 0 -45
63 -3 c60 -3 62 -4 65 -31 6 -51 -49 -87 -132 -87 -99 0 -147 59 -154 185 -3
59 0 77 20 114 28 52 76 81 133 81 46 0 105 -32 112 -60 7 -25 26 -31 65 -19
18 6 39 13 46 15 15 4 -7 66 -36 98 -49 55 -190 80 -280 48z" />
    <path
      d="M4480 3931 c-72 -25 -130 -88 -155 -166 -23 -74 -16 -181 15 -248 67
-141 247 -187 410 -105 l65 33 3 118 3 118 -118 -3 -118 -3 0 -40 0 -40 60 -5
60 -5 0 -35 c0 -49 -47 -80 -123 -80 -92 0 -145 55 -158 162 -8 70 9 131 51
176 32 35 36 37 100 37 66 0 68 -1 104 -41 l36 -41 48 11 c44 10 48 13 42 36
-27 108 -191 169 -325 121z" />
    <path
      d="M5639 3937 c-108 -30 -168 -117 -177 -253 -8 -136 38 -238 129 -284
25 -13 39 -27 39 -40 0 -14 8 -19 36 -22 43 -3 66 -30 46 -50 -7 -7 -36 -13
-65 -14 -44 0 -52 -3 -55 -21 -2 -16 4 -22 28 -26 42 -9 128 11 151 34 23 23
25 66 3 90 -15 17 -14 19 22 34 67 28 134 107 134 158 0 9 -18 19 -44 26 -58
14 -54 16 -70 -22 -32 -77 -124 -103 -185 -51 -33 28 -61 102 -61 164 0 55 27
133 54 159 52 49 156 34 187 -27 7 -15 14 -29 16 -31 1 -2 25 3 53 10 48 12
51 15 45 39 -10 39 -52 88 -95 110 -50 26 -133 33 -191 17z" />
    <path
      d="M6740 3935 c-110 -36 -171 -131 -172 -269 -1 -100 15 -154 60 -206
54 -64 102 -84 202 -84 100 -1 147 18 203 84 44 51 62 114 60 210 -1 125 -55
217 -151 257 -51 21 -150 25 -202 8z m178 -112 c43 -32 61 -79 62 -161 0 -123
-53 -192 -150 -192 -99 0 -145 59 -145 190 0 99 18 141 75 172 44 24 119 20
158 -9z" />
    <path
      d="M7553 3936 c-113 -36 -173 -131 -173 -277 0 -89 19 -151 61 -202 97
-118 297 -113 376 8 47 72 41 94 -34 110 -30 6 -33 4 -46 -28 -42 -100 -172
-105 -222 -7 -22 42 -29 128 -16 191 15 69 51 108 108 116 47 6 109 -19 118
-47 11 -35 29 -41 79 -28 25 7 46 17 46 23 0 5 -10 28 -23 50 -50 88 -163 125
-274 91z" />
    <path
      d="M8844 3941 c-112 -27 -168 -138 -111 -222 32 -48 75 -73 163 -97 97
-27 124 -44 124 -80 0 -45 -37 -72 -98 -72 -64 0 -97 20 -113 67 -11 35 -12
35 -60 31 -27 -3 -52 -8 -56 -12 -13 -13 23 -92 58 -127 44 -44 115 -64 199
-56 120 11 180 67 180 171 0 102 -52 150 -200 186 -80 19 -110 36 -110 64 0
70 141 82 175 16 9 -17 21 -30 28 -31 21 -2 92 3 95 6 2 2 -2 21 -7 43 -25 89
-147 141 -267 113z" />
    <path
      d="M2117 3933 c-4 -3 -7 -129 -7 -280 l0 -273 50 0 50 0 2 168 c2 92 7
167 11 167 5 0 54 -76 110 -168 l102 -168 55 3 55 3 0 275 0 275 -29 3 c-15 2
-39 1 -53 -3 l-24 -6 1 -167 c1 -92 1 -171 1 -177 -1 -13 -35 38 -126 190 -42
72 -84 138 -93 148 -15 17 -91 25 -105 10z" />
    <path
      d="M3267 3933 c-4 -3 -7 -129 -7 -280 l0 -273 55 0 54 0 3 113 3 112 39
3 c49 4 66 -11 147 -134 l62 -94 63 0 c56 0 63 2 57 18 -12 33 -123 191 -145
207 -13 10 -18 19 -13 21 42 17 82 43 98 65 42 58 27 172 -28 212 -14 10 -51
22 -83 27 -65 11 -295 13 -305 3z m315 -124 c14 -18 17 -33 12 -53 -10 -41
-52 -57 -142 -54 l-77 3 -3 54 c-5 83 -6 82 99 79 85 -3 93 -5 111 -29z" />
    <path
      d="M3820 3660 l0 -280 205 0 205 0 0 45 0 44 -147 3 -148 3 0 75 0 75
133 3 132 3 0 44 0 45 -135 0 -135 0 0 60 0 60 146 0 145 0 -3 48 -3 47 -197
3 -198 2 0 -280z" />
    <path
      d="M5083 3928 c-5 -7 -24 -49 -41 -93 -17 -44 -58 -151 -92 -238 -33
-88 -64 -172 -67 -188 l-6 -30 54 3 54 3 21 53 c12 29 26 58 31 63 5 5 55 8
112 7 l103 -3 25 -62 25 -63 55 0 c52 0 55 1 50 23 -6 26 -33 99 -52 142 -7
17 -43 107 -80 200 -37 94 -71 176 -77 183 -6 6 -32 12 -58 12 -26 0 -52 -6
-57 -12z m95 -224 c17 -48 29 -90 26 -95 -7 -11 -121 -12 -128 -1 -3 5 8 46
24 92 17 45 30 84 30 86 0 2 3 4 8 4 4 0 22 -39 40 -86z" />
    <path
      d="M6152 3838 c-68 -173 -159 -412 -167 -436 -6 -22 -5 -23 51 -20 l58
3 20 50 c33 78 27 75 141 75 l103 0 25 -62 25 -63 56 -3 c34 -2 56 1 56 7 0
15 -201 524 -213 539 -5 7 -32 12 -62 12 l-53 0 -40 -102z m135 -135 c17 -48
29 -91 27 -95 -7 -11 -122 -10 -128 1 -3 5 5 39 18 77 32 92 37 104 45 104 3
0 20 -39 38 -87z" />
    <path
      d="M7955 3929 c-3 -8 -4 -133 -3 -279 l3 -265 52 -3 52 -3 3 113 3 113
36 3 c49 4 76 -20 150 -133 l62 -95 64 0 c35 0 63 2 63 4 0 14 -100 166 -132
199 -21 22 -37 41 -36 41 37 12 88 49 105 75 47 70 18 182 -56 218 -49 23
-358 33 -366 12z m314 -115 c28 -35 26 -59 -4 -90 -23 -23 -31 -25 -112 -22
l-88 3 -3 54 c-5 81 -5 81 97 81 85 0 91 -1 110 -26z" />
    <path
      d="M8507 3933 c-4 -3 -7 -129 -7 -280 l0 -273 55 0 55 0 0 280 0 280
-48 0 c-27 0 -52 -3 -55 -7z" />
    <path
      d="M9194 3926 c-3 -8 -4 -29 -2 -48 l3 -33 79 -5 78 -5 -1 -210 c-1
-116 1 -218 5 -228 5 -13 18 -17 55 -17 l49 0 2 228 3 227 80 5 80 5 3 39 c2
24 -2 42 -10 47 -7 5 -104 9 -216 9 -165 0 -204 -3 -208 -14z" />
    <path
      d="M9864 3933 c-6 -5 -29 -55 -51 -113 -140 -358 -163 -419 -163 -429 0
-8 18 -11 57 -9 l56 3 22 60 21 60 103 3 c60 2 108 -2 115 -7 7 -6 19 -30 26
-53 20 -63 26 -68 86 -68 37 0 54 4 53 13 0 6 -49 131 -107 277 l-107 265 -50
3 c-27 1 -55 -1 -61 -5z m87 -223 c42 -109 42 -110 -36 -110 -44 0 -65 4 -65
12 0 25 55 177 63 175 5 -1 22 -36 38 -77z" />
    <path
      d="M5760 3071 c-52 -11 -93 -36 -129 -76 -51 -58 -64 -99 -64 -205 0
-106 13 -147 65 -205 52 -60 100 -79 198 -79 75 0 92 3 130 26 94 55 130 125
130 252 0 137 -43 222 -135 265 -50 24 -141 34 -195 22z m140 -109 c56 -28 75
-72 75 -172 0 -98 -16 -136 -68 -169 -73 -45 -168 -18 -208 60 -29 57 -25 192
7 236 26 36 79 63 124 63 19 0 51 -8 70 -18z" />
    <path
      d="M5037 3063 c-4 -3 -7 -129 -7 -280 l0 -273 50 0 50 0 0 176 c0 147 2
175 14 165 7 -6 46 -66 86 -134 41 -67 87 -141 103 -165 28 -42 29 -43 80 -40
l52 3 0 275 0 275 -50 0 -50 0 -3 -172 c-1 -95 -6 -173 -10 -173 -4 1 -54 79
-110 175 l-104 175 -47 0 c-26 0 -51 -3 -54 -7z" />
    <path
      d="M5964 2201 c-82 -21 -128 -75 -128 -152 0 -87 49 -128 205 -174 111
-32 133 -63 80 -116 -25 -24 -38 -29 -79 -29 -57 0 -92 22 -112 70 -11 27 -17
30 -54 30 -53 0 -67 -13 -56 -51 15 -52 48 -94 92 -119 37 -21 56 -25 129 -24
74 0 91 3 131 27 32 18 53 40 67 70 26 53 26 90 1 144 -26 59 -67 82 -222 123
-86 23 -102 71 -35 104 52 25 110 10 137 -37 18 -30 22 -32 70 -29 42 3 50 7
50 24 0 35 -41 95 -81 117 -42 24 -144 35 -195 22z" />
    <path
      d="M4180 1921 l0 -281 153 0 c83 0 170 5 191 11 80 22 131 110 108 187
-12 39 -38 73 -69 91 -17 9 -17 11 3 33 50 55 58 115 21 169 -38 57 -63 64
-244 67 l-163 3 0 -280z m308 162 c6 -9 12 -29 12 -44 0 -44 -32 -59 -127 -59
l-83 0 0 59 c0 33 4 61 10 63 5 2 47 2 92 0 62 -2 86 -7 96 -19z m1 -212 c36
-20 44 -80 14 -113 -13 -15 -33 -18 -115 -18 l-98 0 0 68 c0 38 3 72 8 76 10
11 167 0 191 -13z" />
    <path
      d="M4735 2188 c-3 -7 -4 -132 -3 -278 l3 -265 53 -3 52 -3 0 115 0 116
44 0 c38 0 48 -5 77 -38 19 -20 57 -72 84 -114 l50 -78 63 0 c34 0 62 4 62 8
0 17 -119 190 -146 211 -16 13 -24 25 -19 27 82 30 125 83 125 153 0 61 -28
110 -76 135 -34 18 -61 21 -202 24 -128 3 -163 1 -167 -10z m315 -108 c24 -24
26 -57 5 -87 -12 -17 -29 -23 -90 -28 -41 -4 -86 -4 -100 -1 -24 6 -25 10 -25
71 l0 65 95 0 c82 0 98 -3 115 -20z" />
    <path
      d="M5401 2088 c-23 -62 -69 -181 -102 -264 -32 -83 -59 -159 -59 -168 0
-13 11 -16 54 -16 l53 0 17 48 c29 81 22 77 140 80 l106 3 20 -48 c32 -76 33
-78 85 -81 26 -2 51 0 55 5 4 4 -41 130 -100 278 l-107 270 -60 3 -59 3 -43
-113z m145 -138 c13 -36 24 -71 24 -77 0 -15 -125 -19 -134 -5 -4 7 18 76 54
167 l12 30 10 -25 c6 -14 21 -54 34 -90z" />
    <path d="M6350 1920 l0 -281 53 3 52 3 0 275 0 275 -52 3 -53 3 0 -281z" />
    <path
      d="M6575 2191 c-3 -2 -5 -127 -5 -278 l0 -273 193 2 192 3 0 45 0 45
-137 3 -138 3 0 224 c0 124 -3 225 -7 226 -31 4 -94 4 -98 0z" />
  </g>
</svg>